<svg width="229" height="228" viewBox="0 0 229 228" fill="none" xmlns="http://www.w3.org/2000/svg">
  <path fill-rule="evenodd" clip-rule="evenodd" d="M33.6102 194.61C78.1299 239.13 150.311 239.13 194.831 194.61C239.35 150.09 239.35 77.9096 194.831 33.3898C150.311 -11.1299 78.1299 -11.1299 33.6102 33.3898C-10.9096 77.9096 -10.9096 150.09 33.6102 194.61ZM114.5 27.5L28 114L114.5 200.5L201 114L114.5 27.5Z" fill="#3679ff" />
  <path d="M114 59L122.039 94.591L152.891 75.1091L133.409 105.961L169 114L133.409 122.039L152.891 152.891L122.039 133.409L114 169L105.961 133.409L75.1091 152.891L94.591 122.039L59 114L94.591 105.961L75.1091 75.1091L105.961 94.591L114 59Z" fill="#3679ff" />
</svg>